<svg role = "image" viewbox="0 0 24 24" xmlns="http://www.w3.org/2000/svg"><title>UiPath</title><path d="M0 7.916h8.169v8.168H0Zm7.32 7.319v-6.47H.85v6.47zM1.584 12.49v-2.467h.833v2.467c0 .621.261.997.85.997.555 0 .833-.36.833-.997v-2.467h.85v2.467c0 1.127-.622 1.797-1.7 1.797-1.045 0-1.666-.67-1.666-1.797zm4.46-1.96a.503.503 0 0 0 .523-.507.497.497 0 0 0-.523-.523.506.506 0 0 0-.523.523c0 .294.229.507.523.507zm-.425 3.708v-3.316h.85v3.316zm5.065-1.356c.915 0 1.52-.539 1.52-1.437 0-.866-.589-1.422-1.52-1.422H9.084v4.232h.85v-1.356h.75Zm-.768-.67h.67c.49 0 .751-.277.751-.767 0-.458-.261-.736-.751-.736h-.67Zm2.565.376c0 .997.637 1.7 1.536 1.7.539 0 .882-.197 1.078-.507v.474h.85v-3.333h-.85v.523c-.212-.344-.555-.556-1.078-.556-.915 0-1.536.719-1.536 1.7zm1.732.948c.523 0 .882-.376.882-.948s-.343-.964-.882-.964c-.54 0-.866.376-.866.964 0 .54.294.948.866.948zm3.855-.017c-.326 0-.408-.147-.408-.44V11.64h.735v-.72h-.735v-.914h-.85v.915h-.392v.719h.392v1.437c0 .784.344 1.16 1.16 1.16h.442v-.719zm1.65-3.692v1.569c.197-.327.507-.507.997-.507.784 0 1.405.572 1.405 1.438v1.911h-.85v-1.83c0-.506-.26-.833-.75-.833-.507 0-.801.343-.801.915v1.765h-.85V9.827Zm2.337-.016v.13h.278v.85h.163v-.85h.261v-.13Zm1.421.784.343-.784H24v.98h-.147v-.752l-.31.752h-.115l-.327-.752v.752h-.147v-.98h.196z"/></svg>